<svg width="1143" height="1166" viewBox="0 0 1143 266" fill="none" xmlns="http://www.w3.org/2000/svg">

<path d="M80.0961 121.626C78.244 115.214 74.7914 109.167 69.7384 104.114C53.7848 88.16 27.9188 88.16 11.9652 104.114C-3.98841 120.067 -3.98841 145.933 11.9652 161.887C17.0183 166.94 23.0657 170.392 29.4777 172.245C32.8124 173.307 36.6495 174.133 40.8349 175.034C54.6805 178.016 72.3375 181.818 88.2258 197.706C88.2258 197.706 90.5368 192.507 95.4475 187.596C100.358 182.685 105.558 180.374 105.558 180.374C89.6695 164.486 85.8674 146.829 82.8861 132.983C81.9848 128.798 81.1586 124.961 80.0961 121.626Z" fill="url(#paint0_linear_361_1534)"/>
<path d="M185.904 144.375C187.756 150.786 191.209 156.834 196.262 161.887C212.215 177.84 238.081 177.84 254.035 161.887C269.988 145.933 269.988 120.067 254.035 104.114C248.982 99.0605 242.934 95.608 236.522 93.7559C233.188 92.6934 229.351 91.8672 225.165 90.966C211.32 87.9846 193.662 84.1825 177.774 68.2942C177.774 68.2942 175.463 73.4938 170.553 78.4045C165.642 83.3153 160.442 85.6262 160.442 85.6262C176.331 101.514 180.133 119.172 183.114 133.017C184.015 137.203 184.841 141.04 185.904 144.375Z" fill="url(#paint1_linear_361_1534)"/>
<path d="M93.7559 29.4775C95.608 23.0656 99.0606 17.0182 104.114 11.9652C120.067 -3.98841 145.933 -3.98841 161.887 11.9652C177.84 27.9188 177.84 53.7848 161.887 69.7384C156.834 74.7915 150.786 78.244 144.374 80.0962C141.04 81.1586 137.203 81.9848 133.017 82.8861C119.172 85.8674 101.514 89.6695 85.6262 105.558C85.6262 105.558 83.3153 100.358 78.4045 95.4475C73.4938 90.5368 68.2942 88.2258 68.2942 88.2258C84.1825 72.3375 87.9846 54.6805 90.966 40.8349C91.8672 36.6494 92.6935 32.8122 93.7559 29.4775Z" fill="url(#paint2_linear_361_1534)"/>
<path d="M172.244 236.523C170.392 242.935 166.939 248.982 161.886 254.035C145.933 269.989 120.067 269.989 104.113 254.035C88.1596 238.082 88.1596 212.216 104.113 196.262C109.166 191.209 115.214 187.756 121.626 185.904C124.96 184.842 128.797 184.016 132.983 183.114C146.828 180.133 164.486 176.331 180.374 160.443C180.374 160.443 182.685 165.642 187.595 170.553C192.506 175.464 197.706 177.775 197.706 177.775C181.817 193.663 178.015 211.32 175.034 225.165C174.133 229.351 173.307 233.188 172.244 236.523Z" fill="url(#paint3_linear_361_1534)"/>

<defs>
<linearGradient id="paint0_linear_361_1534" x1="119.251" y1="276.386" x2="112.859" y2="-28.0325" gradientUnits="userSpaceOnUse">
<stop stop-color="#FF004F"/>
<stop offset="1" stop-color="#FF0581"/>
</linearGradient>
<linearGradient id="paint1_linear_361_1534" x1="119.251" y1="276.386" x2="112.859" y2="-28.0325" gradientUnits="userSpaceOnUse">
<stop stop-color="#FF004F"/>
<stop offset="1" stop-color="#FF0581"/>
</linearGradient>
<linearGradient id="paint2_linear_361_1534" x1="119.251" y1="276.386" x2="112.859" y2="-28.0325" gradientUnits="userSpaceOnUse">
<stop stop-color="#FF004F"/>
<stop offset="1" stop-color="#FF0581"/>
</linearGradient>
<linearGradient id="paint3_linear_361_1534" x1="119.251" y1="276.386" x2="112.859" y2="-28.0325" gradientUnits="userSpaceOnUse">
<stop stop-color="#FF004F"/>
<stop offset="1" stop-color="#FF0581"/>
</linearGradient>
</defs>
</svg>
